<svg height="100" width="100" data-name="Layer 1" xmlns="http://www.w3.org/2000/svg" viewBox="0 0 200 200"><circle cx="99.74" cy="100.72" r="89.74" fill="#00a550"/><path d="M77.18,97v37.61a3.81,3.81,0,0,1-3.76,3.76H56.49a3.8,3.8,0,0,1-3.76-3.76V97a3.8,3.8,0,0,1,3.76-3.76H73.42A3.81,3.81,0,0,1,77.18,97ZM67.78,127A3.8,3.8,0,0,0,64,123.28a3.59,3.59,0,0,0-2.67,1.11A3.67,3.67,0,0,0,60.26,127,3.71,3.71,0,0,0,64,130.8a3.67,3.67,0,0,0,2.65-1.09A3.59,3.59,0,0,0,67.78,127Zm79-30.08a12.87,12.87,0,0,1-3.23,8.75,14.22,14.22,0,0,1,.89,4.47,12.2,12.2,0,0,1-2.53,8,12,12,0,0,1,0,6.88,11.42,11.42,0,0,1-3.17,5.52q.53,6.58-2.88,10.63-3.76,4.46-11.57,4.59h-7.58a43.76,43.76,0,0,1-8.46-.91q-4.58-.91-7.14-1.7T94,140.91q-7.23-2.53-9.29-2.59a3.88,3.88,0,0,1-2.64-1.15,3.49,3.49,0,0,1-1.12-2.61V96.9A3.56,3.56,0,0,1,82,94.34a3.87,3.87,0,0,1,2.53-1.21Q85.93,93,89,89.67t5.94-7.11a85.85,85.85,0,0,1,5.94-7,9.06,9.06,0,0,0,1.82-2.82,19,19,0,0,0,1-2.85q.27-1.09.79-3.55.41-2.3.73-3.59a17.85,17.85,0,0,1,1.15-3.06,10.15,10.15,0,0,1,2-2.94A3.61,3.61,0,0,1,111,55.59a17.53,17.53,0,0,1,4.85.62,12.93,12.93,0,0,1,3.52,1.53,8.35,8.35,0,0,1,2.35,2.38,13.28,13.28,0,0,1,1.41,2.65,14.47,14.47,0,0,1,.71,2.94,24.26,24.26,0,0,1,.29,2.65c0,.59,0,1.35,0,2.29a18.4,18.4,0,0,1-.55,4.47,24.58,24.58,0,0,1-1.12,3.52q-.56,1.29-1.62,3.29c-.11.23-.31.59-.58,1.06a10.53,10.53,0,0,0-.65,1.29c-.15.39-.31.86-.47,1.41h16.28A11.43,11.43,0,0,1,146.75,97Z" fill="#ffffff"/></svg>