<svg height="100" width="100" data-name="Layer 1" xmlns="http://www.w3.org/2000/svg" viewBox="0 0 200 200"><circle cx="99.36" cy="100.15" r="89.75" fill="red"/><path d="M75.42,113.36a3.61,3.61,0,0,1-2.64,1.11H55.86a3.8,3.8,0,0,1-3.76-3.76V73.11a3.8,3.8,0,0,1,3.76-3.76H72.78a3.81,3.81,0,0,1,3.76,3.76v37.61A3.6,3.6,0,0,1,75.42,113.36ZM66,78a3.67,3.67,0,0,0-2.65-1.09,3.76,3.76,0,0,0-2.67,6.41,3.59,3.59,0,0,0,2.67,1.11,3.8,3.8,0,0,0,3.76-3.76A3.59,3.59,0,0,0,66,78ZM143.77,97.5a12.2,12.2,0,0,0-2.53-8,12,12,0,0,0,0-6.88A11.42,11.42,0,0,0,138.06,77q.53-6.58-2.88-10.63-3.76-4.46-11.57-4.59H116a43.32,43.32,0,0,0-8.46.91,73,73,0,0,0-7.14,1.7q-2.55.8-7.08,2.32-7.23,2.53-9.29,2.59a3.9,3.9,0,0,0-2.64,1.14,3.51,3.51,0,0,0-1.12,2.62v37.66a3.56,3.56,0,0,0,1.06,2.56,3.87,3.87,0,0,0,2.53,1.21c.94.07,2.43,1.23,4.46,3.46s4,4.6,5.94,7.11a85.85,85.85,0,0,0,5.94,7A9.06,9.06,0,0,1,102,135a19,19,0,0,1,1,2.85q.27,1.09.79,3.55.41,2.3.73,3.59a17.64,17.64,0,0,0,1.15,3.05,10.18,10.18,0,0,0,2,2.94,3.61,3.61,0,0,0,2.64,1.11,17.53,17.53,0,0,0,4.85-.62,12.93,12.93,0,0,0,3.52-1.53,8.43,8.43,0,0,0,2.35-2.38,13.44,13.44,0,0,0,1.41-2.65,14.47,14.47,0,0,0,.71-2.94,24.26,24.26,0,0,0,.29-2.65c0-.59,0-1.35,0-2.29a18,18,0,0,0-.58-4.5,23.14,23.14,0,0,0-1.12-3.44c-.35-.78-.88-1.9-1.59-3.35-.11-.23-.31-.59-.58-1.06a10.53,10.53,0,0,1-.65-1.29c-.15-.39-.31-.86-.47-1.41h16.28a10.77,10.77,0,0,0,7.91-3.35,11.12,11.12,0,0,0,3.38-7.94,12.63,12.63,0,0,0-3.23-8.76A14.16,14.16,0,0,0,143.77,97.5Z" fill="#ffffff"/></svg>