<svg height="100" width="100" data-name="Layer 1" xmlns="http://www.w3.org/2000/svg" viewBox="75 65 210 210"><path fill="#ffffff" fill-rule="evenodd" d="M157,193.33c1.6,2.47,4.61,5,6.75,5H185.5c2.14,0,5.15-2.49,6.75-5a18.55,18.55,0,0,1-6.75,1.27H163.77a18.54,18.54,0,0,1-6.75-1.27Zm109.7,75.61H238.26l-1.51-51.7c-.16-4.12-5-3.93-5,0v51.7H117.55v-51.7c0-3.92-4.86-4.12-5,0L111,268.94H82.54L85,205.44c1.08-22.3,11.79-34.48,29.33-40.61a183.91,183.91,0,0,1,29.45-7.72,48.28,48.28,0,0,0,5.19,4.5v20a27.69,27.69,0,0,0,3.94,14.77c2.68,4.23,6.52,6.86,10.85,6.86,3.31,0,6.91.52,6.91,4.83v34.8a8.69,8.69,0,1,0,7.92,0v-34.8c0-4.31,3.59-4.83,6.91-4.83,4.34,0,8.17-2.63,10.85-6.86a27.7,27.7,0,0,0,3.94-14.77v-20a49.62,49.62,0,0,0,4-3.37,187.55,187.55,0,0,1,23.55,6.59c17.54,6.13,35,18.34,36.06,40.61l2.8,63.49ZM194.37,165.46a48,48,0,0,1-11.74,4.66,39.3,39.3,0,0,1-16,0,47.93,47.93,0,0,1-11.74-4.66V181.6c0,5.36,3.1,8.85,8.87,8.85H185.5c5.77,0,8.87-3.49,8.87-8.85V165.46Zm-19.74,81.25a3.89,3.89,0,1,0,3.89,3.89,3.89,3.89,0,0,0-3.89-3.89Zm41.19-39.55v-8.39h-9.19v8.39h-8.39v9.19h8.39v8.39h9.19v-8.39h8.39v-9.19ZM139.33,97.24c-.86,9.85,1.2,33.14,5.77,42,4,7.72,13.29,15.12,23.61,17.66a26.9,26.9,0,0,0,11.22,0c10.31-2.53,19.61-9.94,23.6-17.66,4.57-8.82,6.63-32.11,5.77-42-1.65-18.86-17.41-28.3-35-28.3S141,78.37,139.33,97.24Z"/></svg>