<svg 
height="100" 
width="100" 
data-name="Layer 1" 
xmlns="http://www.w3.org/2000/svg" 
viewBox="70 65 220 220">
	<path fill="#888b8c" d="M258.65,254.19H105.35a8.7,8.7,0,0,1-7.6-4.09,99.77,99.77,0,0,1-7.82-92.77,98.29,98.29,0,0,1,53.22-53.22,99.16,99.16,0,0,1,77.7,0,98.29,98.29,0,0,1,53.22,53.22h0a99.77,99.77,0,0,1-7.81,92.75A8.73,8.73,0,0,1,258.65,254.19ZM182,100.23a94.19,94.19,0,0,0-37.25,7.6,94.23,94.23,0,0,0-51.09,51.09,95.71,95.71,0,0,0,7.5,89,4.62,4.62,0,0,0,4.19,2.23h153.3a4.65,4.65,0,0,0,4.21-2.25,95.71,95.71,0,0,0,7.48-88.95h0a94.23,94.23,0,0,0-51.09-51.09A94.24,94.24,0,0,0,182,100.23Zm.15,140a23.87,23.87,0,0,1-6-.79,22.1,22.1,0,0,1-14-10.68,23,23,0,0,1,5.17-29.32,22.85,22.85,0,0,1,11.38-5L189.33,154a8.87,8.87,0,0,1,4.22-5.55,8.5,8.5,0,0,1,6.82-.91,9.19,9.19,0,0,1,6.46,10.94l0,.06L196.13,199a22.92,22.92,0,0,1,7.45,10,23.06,23.06,0,0,1-10,28.07A22.61,22.61,0,0,1,182.15,240.26Zm15.83-89a4.6,4.6,0,0,0-2.37.69,4.88,4.88,0,0,0-2.35,3.09l-11.41,43.15-1.43.12a18.89,18.89,0,0,0-10.58,4.3,18.91,18.91,0,0,0-4.23,24.14,17.94,17.94,0,0,0,11.55,8.79,18.33,18.33,0,0,0,14.44-2,19,19,0,0,0,8.2-23.1,18.7,18.7,0,0,0-7.12-9l-1.19-.81,11.4-43.12a5.13,5.13,0,0,0-3.61-6.09A4.81,4.81,0,0,0,198,151.25Zm54,60.95a16,16,0,1,1,11.33-4.69h0A15.51,15.51,0,0,1,252,212.2Zm0-28a12,12,0,1,0,8.46,3.51A11.43,11.43,0,0,0,252,184.21Zm-140,28a16,16,0,1,1,11.33-4.69h0A15.51,15.51,0,0,1,112,212.2Zm0-28a12,12,0,1,0,8.46,3.51A11.43,11.43,0,0,0,112,184.21Zm119-21a15.51,15.51,0,0,1-11.33-4.69h0a16,16,0,1,1,11.33,4.7Zm-8.46-7.57a12,12,0,1,0-3.51-8.46,11.43,11.43,0,0,0,3.51,8.46ZM133,163.21a16,16,0,1,1,11.33-4.7h0A15.51,15.51,0,0,1,133,163.21Zm0-28a12,12,0,1,0,8.46,3.51A11.43,11.43,0,0,0,133,135.22Zm49,7a16,16,0,0,1-11.33-27.36h0A16,16,0,1,1,182,142.22Zm-8.46-24.49a12,12,0,1,0,8.46-3.51,11.43,11.43,0,0,0-8.46,3.51Z"/>
</svg>