<svg height="100" width="100" data-name="Layer 1" xmlns="http://www.w3.org/2000/svg" viewBox="0 0 200 200"><path fill="#365989" d="M187.75,117.32a88.51,88.51,0,0,1-14.12,48.38,6.1,6.1,0,0,1-5.41,2.9H27.79a6.09,6.09,0,0,1-5.41-2.9,89.53,89.53,0,0,1-7-83.23A88.18,88.18,0,0,1,63.14,34.69a89,89,0,0,1,69.71,0,88.18,88.18,0,0,1,47.78,47.78A87.78,87.78,0,0,1,187.75,117.32ZM43,126.39A12.82,12.82,0,0,0,33.9,104.5a12.82,12.82,0,0,0,0,25.64A12.36,12.36,0,0,0,43,126.39ZM62.19,81.51a12.82,12.82,0,0,0-9.06-21.89,12.82,12.82,0,0,0-9.06,21.89,12.82,12.82,0,0,0,18.13,0Zm46.63,39.11,10.12-38.26a6.56,6.56,0,0,0-4.61-7.81,6,6,0,0,0-4.81.65,6.3,6.3,0,0,0-3,4L96.4,117.42a19.05,19.05,0,0,0-10.72,4.36,19.18,19.18,0,0,0-4.31,24.49,18.37,18.37,0,0,0,11.72,8.91,18.74,18.74,0,0,0,14.62-2A19.27,19.27,0,0,0,116,129.74,19.1,19.1,0,0,0,108.82,120.63Zm-1.75-58.34a12.82,12.82,0,0,0,0-18.13,12.82,12.82,0,0,0-21.89,9.06,12.82,12.82,0,0,0,21.89,9.06Zm44.87,19.23a12.82,12.82,0,1,0-9.06,3.76A12.35,12.35,0,0,0,151.94,81.51Zm19.23,44.87a12.82,12.82,0,1,0-9.06,3.76A12.35,12.35,0,0,0,171.17,126.39Z"/></svg>