<svg height="100" width="100" data-name="Layer 1" xmlns="http://www.w3.org/2000/svg" viewBox="70 70 210 210"><path fill="none" d="M218.61,114.27H132.05a9.57,9.57,0,0,0-9.57,9.57V226.17a9.57,9.57,0,0,0,9.57,9.57h86.55a9.57,9.57,0,0,0,9.57-9.57V123.83A9.57,9.57,0,0,0,218.61,114.27Zm3,107.61a7.7,7.7,0,0,1-7.7,7.7H136.26a7.7,7.7,0,0,1-7.7-7.7V128.37a7.7,7.7,0,0,1,7.7-7.7h77.66a7.7,7.7,0,0,1,7.7,7.7Z"/><path fill="none" d="M187.06,179.46l-1.83-3.67-4.78,15.89a2.09,2.09,0,0,1-.75,1.08,2,2,0,0,1-1.25.43,2,2,0,0,1-1.28-.43,2.08,2.08,0,0,1-.75-1.08l-6.23-21.85L167.89,179a2,2,0,0,1-.74,1.13,2.07,2.07,0,0,1-1.29.44H153.77a3.07,3.07,0,0,0,.69.66L174.9,201a2.06,2.06,0,0,0,2.88,0l20.41-19.66.1-.13.29-.25a3.36,3.36,0,0,0,.33-.34h-10A2,2,0,0,1,187.06,179.46Z"/><path class="none" d="M190,151.24a13.06,13.06,0,0,0-4.15.7,16.8,16.8,0,0,0-3.93,1.9q-1.82,1.2-3.13,2.24a30.18,30.18,0,0,0-2.49,2.23,30.28,30.28,0,0,0-2.49-2.23q-1.31-1-3.13-2.24a16.8,16.8,0,0,0-3.93-1.9,13.07,13.07,0,0,0-4.15-.7q-7.34,0-11.5,4.06T147,166.58a17.81,17.81,0,0,0,3.37,9.83h13.86l3.8-15.2a2,2,0,0,1,2-1.57,2.12,2.12,0,0,1,1.29.43,2.06,2.06,0,0,1,.77,1.08l6.42,22.48,4.23-14.09a2.09,2.09,0,0,1,3-1.24,2,2,0,0,1,.84.88l3.64,7.24h12.09a17.81,17.81,0,0,0,3.37-9.83q0-7.21-4.16-11.27T190,151.24Z"/><path fill="#ffffff" d="M218,111h-9.35V82.34A7.34,7.34,0,0,0,201.28,75h-53A7.34,7.34,0,0,0,141,82.34V111h-8.66a13.51,13.51,0,0,0-13.51,13.51v101A13.51,13.51,0,0,0,132.33,239h11v28.62a7.34,7.34,0,0,0,7.34,7.34h53a7.34,7.34,0,0,0,7.34-7.34V239h7a13.51,13.51,0,0,0,13.51-13.51v-101A13.51,13.51,0,0,0,218,111Zm10.21,115.2a9.57,9.57,0,0,1-9.57,9.57H132.05a9.57,9.57,0,0,1-9.57-9.57V123.83a9.57,9.57,0,0,1,9.57-9.57h86.55a9.57,9.57,0,0,1,9.57,9.57Z"/><path fill="#ffffff" d="M213.92,120.66H136.26a7.7,7.7,0,0,0-7.7,7.7v93.51a7.7,7.7,0,0,0,7.7,7.7h77.66a7.7,7.7,0,0,0,7.7-7.7V128.37A7.7,7.7,0,0,0,213.92,120.66Zm-15.33,60.28-.29.25-.1.13L177.78,201a2.06,2.06,0,0,1-2.88,0l-20.45-19.72a3.07,3.07,0,0,1-.69-.66h12.09a2.07,2.07,0,0,0,1.29-.44,2,2,0,0,0,.74-1.13l2.29-9.21,6.23,21.85a2.08,2.08,0,0,0,.75,1.08,2,2,0,0,0,1.28.43,2,2,0,0,0,1.25-.43,2.09,2.09,0,0,0,.75-1.08l4.78-15.89,1.83,3.67a2,2,0,0,0,1.87,1.15h10A3.36,3.36,0,0,1,198.59,180.95Zm3.74-4.54H190.23l-3.64-7.24a2,2,0,0,0-.84-.88,2.09,2.09,0,0,0-3,1.24l-4.23,14.09-6.42-22.48a2.06,2.06,0,0,0-.77-1.08,2.12,2.12,0,0,0-1.29-.43,2,2,0,0,0-2,1.57l-3.8,15.2H150.36a17.81,17.81,0,0,1-3.37-9.83q0-7.21,4.16-11.27t11.5-4.06a13.07,13.07,0,0,1,4.15.7,16.8,16.8,0,0,1,3.93,1.9q1.82,1.2,3.13,2.24a30.28,30.28,0,0,1,2.49,2.23,30.18,30.18,0,0,1,2.49-2.23q1.31-1,3.13-2.24a16.8,16.8,0,0,1,3.93-1.9,13.06,13.06,0,0,1,4.15-.7q7.34,0,11.5,4.06t4.16,11.27A17.81,17.81,0,0,1,202.32,176.41Z"/></svg>