<svg height="100" width="100" 
data-name="Layer 1" xmlns="http://www.w3.org/2000/svg" 
viewBox="62 60 230 230"><path fill="#888b8c" d="M225.49,227.11H187.81a2,2,0,0,1-2-2V187.39a2,2,0,0,1,2-2h37.68a2,2,0,0,1,2,2v37.68A2,2,0,0,1,225.49,227.11ZM189.84,223h33.62V189.42H189.84Z"/><path fill="#888b8c" d="M225.49,268.55H187.81a2,2,0,0,1-2-2V232.61a2,2,0,0,1,2-2h37.68a2,2,0,0,1,2,2v33.91A2,2,0,0,1,225.49,268.55Zm-35.65-4.06h33.62V234.64H189.84Z"/><path fill="#888b8c" d="M225.49,181.89H187.81a2,2,0,0,1-2-2V145.95a2,2,0,0,1,2-2h37.68a2,2,0,0,1,2,2v33.91A2,2,0,0,1,225.49,181.89Zm-35.65-4.06h33.62V148H189.84Z"/><path fill="#888b8c" d="M180.27,181.89H142.59a2,2,0,0,1-2-2V145.95a2,2,0,0,1,2-2h37.68a2,2,0,0,1,2,2v33.91A2,2,0,0,1,180.27,181.89Zm-35.65-4.06h33.62V148H144.62Z"/><path fill="#888b8c" d="M266.94,181.89H233a2,2,0,0,1-2-2V145.95a2,2,0,0,1,2-2h33.91a2,2,0,0,1,2,2v33.91A2,2,0,0,1,266.94,181.89Zm-31.88-4.06h29.85V148H235.06Z"/><path fill="#888b8c" d="M233,129.14h-7.54a5.85,5.85,0,0,1-5.8-5.8V89.42a5.85,5.85,0,0,1,5.8-5.8H233a5.85,5.85,0,0,1,5.8,5.8v33.91a5.85,5.85,0,0,1-5.8,5.8Zm-7.54-41.45a1.79,1.79,0,0,0-1.74,1.74v33.91a1.57,1.57,0,0,0,.52,1.21,1.59,1.59,0,0,0,1.22.53H233a1.79,1.79,0,0,0,1.74-1.74V89.42A1.79,1.79,0,0,0,233,87.69Z"/><path fill="#888b8c" d="M266.94,268.55H233a2,2,0,0,1-2-2V232.61a2,2,0,0,1,2-2h33.91a2,2,0,0,1,2,2v33.91A2,2,0,0,1,266.94,268.55Zm-31.88-4.06h29.85V234.64H235.06Z"/><path fill="#888b8c" d="M266.94,227.11H233a2,2,0,0,1-2-2V187.39a2,2,0,0,1,2-2h33.91a2,2,0,0,1,2,2v37.68A2,2,0,0,1,266.94,227.11ZM235.06,223h29.85V189.42H235.06Z"/><path fill="#888b8c" d="M180.27,227.11H142.59a2,2,0,0,1-2-2V187.39a2,2,0,0,1,2-2h37.68a2,2,0,0,1,2,2v37.68A2,2,0,0,1,180.27,227.11ZM144.62,223h33.62V189.42H144.62Z"/><path fill="#888b8c" d="M135.06,268.55H101.15a2,2,0,0,1-2-2V232.61a2,2,0,0,1,2-2h33.91a2,2,0,0,1,2,2v33.91A2,2,0,0,1,135.06,268.55Zm-31.88-4.06H133V234.64H103.18Z"/><path fill="#888b8c" d="M266.94,283.63H101.15A17.31,17.31,0,0,1,84,266.52V115.8a17.31,17.31,0,0,1,17.1-17.1h13V89.42a20.93,20.93,0,0,1,20.87-20.87h7.54a20.93,20.93,0,0,1,20.87,20.87V98.7h41.16V89.42a20.93,20.93,0,0,1,20.87-20.87H233A20.93,20.93,0,0,1,253.9,89.42V98.7h13A17.31,17.31,0,0,1,284,115.8V266.52a17.31,17.31,0,0,1-17.1,17.1ZM101.15,102.76a13.25,13.25,0,0,0-13,13V266.52a13.25,13.25,0,0,0,13,13H266.94a13.25,13.25,0,0,0,13-13V115.8a13.25,13.25,0,0,0-13-13H251.87a2,2,0,0,1-2-2V89.42A16.87,16.87,0,0,0,233,72.61h-7.54a16.86,16.86,0,0,0-16.81,16.81v11.3a2,2,0,0,1-2,2H161.43a2,2,0,0,1-2-2V89.42a16.86,16.86,0,0,0-16.81-16.81h-7.54a16.87,16.87,0,0,0-16.81,16.81v11.3a2,2,0,0,1-2,2Z"/><path fill="#888b8c" d="M135.06,227.11H101.15a2,2,0,0,1-2-2V187.39a2,2,0,0,1,2-2h33.91a2,2,0,0,1,2,2v37.68A2,2,0,0,1,135.06,227.11ZM103.18,223H133V189.42H103.18Z"/><path fill="#888b8c" d="M180.27,268.55H142.59a2,2,0,0,1-2-2V232.61a2,2,0,0,1,2-2h37.68a2,2,0,0,1,2,2v33.91A2,2,0,0,1,180.27,268.55Zm-35.65-4.06h33.62V234.64H144.62Z"/><path fill="#888b8c" d="M135.06,181.89H101.15a2,2,0,0,1-2-2V145.95a2,2,0,0,1,2-2h33.91a2,2,0,0,1,2,2v33.91A2,2,0,0,1,135.06,181.89Zm-31.88-4.06H133V148H103.18Z"/><path fill="#888b8c" d="M142.59,129.14h-7.54a5.85,5.85,0,0,1-5.8-5.8V89.42a5.85,5.85,0,0,1,5.8-5.8h7.54a5.85,5.85,0,0,1,5.8,5.8v33.91a5.85,5.85,0,0,1-5.8,5.8Zm-7.54-41.45a1.79,1.79,0,0,0-1.74,1.74v33.91a1.57,1.57,0,0,0,.52,1.21,1.59,1.59,0,0,0,1.22.53h7.54a1.79,1.79,0,0,0,1.74-1.74V89.42a1.79,1.79,0,0,0-1.74-1.74Z"/></svg>