<svg height="100" width="100" data-name="Layer 1" xmlns="http://www.w3.org/2000/svg" viewBox="0 0 200 200"><path fill="#365989" d="M181.34,46.81V175a13,13,0,0,1-12.82,12.82h-141a12.32,12.32,0,0,1-9-3.81,12.31,12.31,0,0,1-3.81-9V46.81a12.31,12.31,0,0,1,3.81-9,12.32,12.32,0,0,1,9-3.81H40.31V24.37A15.42,15.42,0,0,1,45,13.05,15.44,15.44,0,0,1,56.33,8.34h6.41a15.45,15.45,0,0,1,11.32,4.71,15.44,15.44,0,0,1,4.71,11.32V34h38.46V24.37a15.42,15.42,0,0,1,4.71-11.32,15.44,15.44,0,0,1,11.32-4.71h6.41A15.45,15.45,0,0,1,151,13.05a15.44,15.44,0,0,1,4.71,11.32V34h12.82a13,13,0,0,1,12.82,12.82ZM27.49,101.3H56.33V72.45H27.49Zm0,38.46H56.33V107.71H27.49Zm0,35.26H56.33V146.17H27.49ZM65.95,53.22V24.37a3.25,3.25,0,0,0-3.21-3.21H56.33a3.25,3.25,0,0,0-3.21,3.21V53.22a3.25,3.25,0,0,0,3.21,3.21h6.41a3.25,3.25,0,0,0,3.21-3.21ZM62.74,101.3H94.79V72.45H62.74Zm0,38.46H94.79V107.71H62.74Zm0,35.26H94.79V146.17H62.74Zm38.46-73.72h32.05V72.45H101.21Zm0,38.46h32.05V107.71H101.21Zm0,35.26h32.05V146.17H101.21Zm41.67-121.8V24.37a3.25,3.25,0,0,0-3.21-3.21h-6.41a3.25,3.25,0,0,0-3.21,3.21V53.22a3.25,3.25,0,0,0,3.21,3.21h6.41a3.25,3.25,0,0,0,3.21-3.21Zm-3.21,48.08h28.85V72.45H139.67Zm0,38.46h28.85V107.71H139.67Zm0,35.26h28.85V146.17H139.67Z"/></svg>