<svg height="100" width="100" data-name="Layer 1" xmlns="http://www.w3.org/2000/svg" viewBox="0 0 200 200"><path fill="#365989" d="M157.83,62.61a44.92,44.92,0,0,1-12,31.32q-5.26,5.73-8.71,10.17a74.35,74.35,0,0,0-7,11.16,33.2,33.2,0,0,0-4,12.56,10.51,10.51,0,0,1,5.49,9.58,10.62,10.62,0,0,1-2.92,7.48,11.1,11.1,0,0,1-2.34,16.94,11,11,0,0,1,1.52,5.49,10,10,0,0,1-3.68,8.3,14.14,14.14,0,0,1-9.06,2.92,18.86,18.86,0,0,1-7,8.18,18.53,18.53,0,0,1-20.33,0,18.86,18.86,0,0,1-7-8.18,14.14,14.14,0,0,1-9.06-2.92,10,10,0,0,1-3.68-8.3,11,11,0,0,1,1.52-5.49,11.1,11.1,0,0,1-2.34-16.94,10.62,10.62,0,0,1-2.92-7.48,10.51,10.51,0,0,1,5.49-9.58,33.2,33.2,0,0,0-4-12.56,74.35,74.35,0,0,0-7-11.16q-3.45-4.44-8.71-10.17a44.92,44.92,0,0,1-12-31.32A46,46,0,0,1,43.37,41,50,50,0,0,1,57,24.45a67.85,67.85,0,0,1,19.16-10.4,64.43,64.43,0,0,1,43.59,0A67.85,67.85,0,0,1,139,24.45,50,50,0,0,1,152.63,41,46,46,0,0,1,157.83,62.61Zm-15,0a31.68,31.68,0,0,0-4-15.66,35.53,35.53,0,0,0-10.52-11.86A54.23,54.23,0,0,0,114,27.84a49.7,49.7,0,0,0-31.9,0,54.23,54.23,0,0,0-14.37,7.25A35.53,35.53,0,0,0,57.16,46.95a32.06,32.06,0,0,0,3.91,36.69c.78.85,2,2.14,3.56,3.86s2.78,3,3.56,3.86q15,17.88,16.48,34.82h26.64q1.52-16.95,16.48-34.82c.78-.85,2-2.14,3.56-3.86s2.78-3,3.56-3.86A31.36,31.36,0,0,0,142.87,62.61Zm-18.7,0a3.74,3.74,0,0,1-7.48,0q0-5.38-6.31-8.3A29.3,29.3,0,0,0,98,51.39a3.74,3.74,0,0,1,0-7.48,37.54,37.54,0,0,1,11.63,1.87,24.9,24.9,0,0,1,10.17,6.31A14.46,14.46,0,0,1,124.18,62.61Z"/></svg>