<svg 
height="100" 
width="100" 
data-name="Layer 1" 
xmlns="http://www.w3.org/2000/svg" viewBox="60 60 220 220">
	<path fill="#888b8c" d="M189.26,199.08H156.74l-.17-1.89c-1.05-11.84-6.88-24.24-17.32-36.86-.78-.86-2.05-2.26-3.78-4.13s-3-3.29-3.86-4.22a36.66,36.66,0,0,1-9.12-24.35,37.06,37.06,0,0,1,4.61-18.1,40.87,40.87,0,0,1,12-13.62,60.65,60.65,0,0,1,16.06-8.18,55.42,55.42,0,0,1,35.75,0,60.65,60.65,0,0,1,16.06,8.18,40.87,40.87,0,0,1,12,13.62,37.06,37.06,0,0,1,4.61,18.1,36.62,36.62,0,0,1-9.08,24.31c-.89,1-2.17,2.39-3.9,4.27s-3,3.26-3.84,4.19c-10.38,12.55-16.21,24.95-17.26,36.79Zm-28.81-4.15h25.1c1.54-12.11,7.61-24.64,18.06-37.26.91-1,2.19-2.41,3.92-4.29s3-3.26,3.84-4.19a32.51,32.51,0,0,0,8-21.56,32.93,32.93,0,0,0-4.1-16.08,36.77,36.77,0,0,0-10.75-12.26,56.54,56.54,0,0,0-15-7.63,51.33,51.33,0,0,0-33.16,0,56.54,56.54,0,0,0-15,7.63,36.77,36.77,0,0,0-10.75,12.26,32.93,32.93,0,0,0-4.1,16.08,32.55,32.55,0,0,0,8.09,21.6c.8.88,2.07,2.28,3.79,4.15s3,3.29,3.86,4.22C152.84,170.29,158.91,182.82,160.45,194.93Zm36.78-61.15a5.93,5.93,0,0,1-4.29-1.82,6.05,6.05,0,0,1-1.8-4.34c0-3.05-1.84-5.4-5.63-7.17a29.51,29.51,0,0,0-12.51-3,5.93,5.93,0,0,1-4.29-1.82,6.12,6.12,0,0,1,0-8.67,5.93,5.93,0,0,1,4.29-1.82,42.35,42.35,0,0,1,13.19,2.14A29,29,0,0,1,198,114.7a18,18,0,0,1,5.32,12.93,6.05,6.05,0,0,1-1.8,4.34A5.93,5.93,0,0,1,197.23,133.78ZM173,109.3a1.83,1.83,0,0,0-1.39.61,1.95,1.95,0,0,0,0,2.81,1.83,1.83,0,0,0,1.39.61,33.54,33.54,0,0,1,14.24,3.38c5.31,2.49,8,6.17,8,10.93a1.87,1.87,0,0,0,.6,1.4,1.9,1.9,0,0,0,2.78,0,1.87,1.87,0,0,0,.6-1.4,13.74,13.74,0,0,0-4.14-10,25,25,0,0,0-10.15-6.37A38.32,38.32,0,0,0,173,109.3Z"/>
	<path fill="#888b8c" d="M173,268.45a21.73,21.73,0,0,1-12.1-3.65,22.57,22.57,0,0,1-7.76-8.63,16.85,16.85,0,0,1-9.75-3.6c-3.16-2.53-4.75-6.13-4.75-10.68a13.81,13.81,0,0,1,1.09-5.34,13.51,13.51,0,0,1-5.13-11,13.72,13.72,0,0,1,2.56-8.16,13.72,13.72,0,0,1-2.56-8.16,13.38,13.38,0,0,1,5.81-11.5,36,36,0,0,0-3.94-11.7,79.66,79.66,0,0,0-7.31-11.87c-2.45-3.19-5.58-6.88-9.29-11a51.55,51.55,0,0,1-13.54-35.58,52.91,52.91,0,0,1,5.85-24.49A56.81,56.81,0,0,1,127.5,84.36a75.45,75.45,0,0,1,21.27-11.67,71.27,71.27,0,0,1,48.45,0A75.45,75.45,0,0,1,218.5,84.36a56.81,56.81,0,0,1,15.32,18.79,52.91,52.91,0,0,1,5.85,24.49,51.54,51.54,0,0,1-13.53,35.57c-3.72,4.09-6.85,7.78-9.3,11A79.66,79.66,0,0,0,209.52,186a36,36,0,0,0-3.94,11.7,13.38,13.38,0,0,1,5.81,11.5,13.72,13.72,0,0,1-2.56,8.16,13.72,13.72,0,0,1,2.56,8.16,13.51,13.51,0,0,1-5.13,11,13.81,13.81,0,0,1,1.09,5.34c0,4.55-1.6,8.15-4.75,10.68a16.85,16.85,0,0,1-9.76,3.6,22.57,22.57,0,0,1-7.75,8.63A21.73,21.73,0,0,1,173,268.45Zm0-195.88a67.41,67.41,0,0,0-22.85,4,71.35,71.35,0,0,0-20.12,11,52.7,52.7,0,0,0-14.21,17.43,48.77,48.77,0,0,0-5.38,22.57,47.49,47.49,0,0,0,12.46,32.78c3.79,4.17,7,7.94,9.51,11.22a83.72,83.72,0,0,1,7.71,12.49,38.7,38.7,0,0,1,4.52,14.5l.1,1.29-1.1.66a9.47,9.47,0,0,0-4.93,8.68,9.57,9.57,0,0,0,2.61,6.75l1.29,1.41-1.29,1.41a10.11,10.11,0,0,0,2.13,15.34l1.63,1.06-1,1.71a10.1,10.1,0,0,0-1.37,5c0,3.27,1,5.7,3.2,7.43a13.07,13.07,0,0,0,8.5,2.74h1.32l.55,1.22a18.35,18.35,0,0,0,6.82,8,17.8,17.8,0,0,0,19.72,0,18.34,18.34,0,0,0,6.82-8l.55-1.22h1.32a13.07,13.07,0,0,0,8.51-2.74c2.15-1.73,3.2-4.16,3.2-7.43a10.1,10.1,0,0,0-1.37-5l-1-1.71,1.63-1.06a10.11,10.11,0,0,0,2.13-15.34l-1.29-1.41,1.29-1.41a9.57,9.57,0,0,0,2.61-6.75,9.47,9.47,0,0,0-4.93-8.68l-1.1-.66.1-1.29a38.7,38.7,0,0,1,4.52-14.5,83.72,83.72,0,0,1,7.71-12.49c2.52-3.28,5.72-7.05,9.51-11.22a47.49,47.49,0,0,0,12.46-32.77,48.77,48.77,0,0,0-5.38-22.57A52.7,52.7,0,0,0,216,87.63a71.35,71.35,0,0,0-20.12-11A67.41,67.41,0,0,0,173,72.57Zm16.26,126.5H156.74l-.17-1.89c-1.05-11.84-6.88-24.24-17.32-36.86-.78-.86-2.05-2.26-3.78-4.13s-3-3.29-3.86-4.22a36.66,36.66,0,0,1-9.12-24.35,37.06,37.06,0,0,1,4.61-18.1,40.87,40.87,0,0,1,12-13.62,60.65,60.65,0,0,1,16.06-8.18,55.42,55.42,0,0,1,35.75,0,60.65,60.65,0,0,1,16.06,8.18,40.87,40.87,0,0,1,12,13.62,37.06,37.06,0,0,1,4.61,18.1,36.62,36.62,0,0,1-9.08,24.31l0,0c-.85.94-2.13,2.34-3.86,4.22s-3,3.26-3.84,4.19c-10.38,12.55-16.21,24.95-17.26,36.79Zm-28.81-4.15h25.1c1.54-12.11,7.61-24.64,18.06-37.26.91-1,2.19-2.41,3.92-4.29s3-3.24,3.82-4.17a32.55,32.55,0,0,0,8.07-21.58,32.93,32.93,0,0,0-4.1-16.08,36.77,36.77,0,0,0-10.75-12.26,56.54,56.54,0,0,0-15-7.63,51.33,51.33,0,0,0-33.16,0,56.54,56.54,0,0,0-15,7.63,36.77,36.77,0,0,0-10.75,12.26,32.93,32.93,0,0,0-4.1,16.08,32.56,32.56,0,0,0,8.09,21.6c.8.88,2.07,2.28,3.79,4.15s3,3.29,3.86,4.22C152.84,170.29,158.91,182.82,160.45,194.93Z"/>
	<path fill="#888b8c" d="M197.23,133.78a5.93,5.93,0,0,1-4.29-1.82,6.05,6.05,0,0,1-1.8-4.34c0-3.05-1.84-5.4-5.63-7.17a29.51,29.51,0,0,0-12.51-3,5.93,5.93,0,0,1-4.29-1.82,6.12,6.12,0,0,1,0-8.67,5.93,5.93,0,0,1,4.29-1.82,42.35,42.35,0,0,1,13.19,2.14A29,29,0,0,1,198,114.7a18,18,0,0,1,5.32,12.93,6.05,6.05,0,0,1-1.8,4.34A5.93,5.93,0,0,1,197.23,133.78ZM173,109.3a1.83,1.83,0,0,0-1.39.61,1.95,1.95,0,0,0,0,2.81,1.83,1.83,0,0,0,1.39.61,33.54,33.54,0,0,1,14.24,3.38c5.31,2.49,8,6.17,8,10.93a1.87,1.87,0,0,0,.6,1.4,1.9,1.9,0,0,0,2.78,0,1.87,1.87,0,0,0,.6-1.4,13.74,13.74,0,0,0-4.14-10,25,25,0,0,0-10.15-6.37A38.32,38.32,0,0,0,173,109.3Z"/>
</svg>