<svg height="100" width="100" data-name="Layer 1" 
xmlns="http://www.w3.org/2000/svg" 
viewBox="71 62 220 220">
	<path fill="#888b8c" d="M215.06,114.14H155V96.08h60Zm-56-4.06H211v-9.94H159.08Z"/>
	<path fill="#888b8c" d="M195.54,226.1h-21a5.4,5.4,0,0,1-5.53-5.53V198.11H146.56a5.4,5.4,0,0,1-5.53-5.53v-21a5.4,5.4,0,0,1,5.53-5.53H169V143.6a5.4,5.4,0,0,1,5.53-5.53h21a5.4,5.4,0,0,1,5.53,5.53v22.46h22.46a5.4,5.4,0,0,1,5.53,5.53v21a5.39,5.39,0,0,1-5.53,5.53H201.07v22.46a5.4,5.4,0,0,1-5.53,5.53Zm-49-56a1.35,1.35,0,0,0-1.47,1.47v21a1.35,1.35,0,0,0,1.47,1.47h26.52v26.52a1.35,1.35,0,0,0,1.47,1.47h21a1.35,1.35,0,0,0,1.47-1.47V194.05h26.52a1.35,1.35,0,0,0,1.47-1.47v-21a1.35,1.35,0,0,0-1.47-1.47H197V143.6a1.35,1.35,0,0,0-1.47-1.47h-21a1.35,1.35,0,0,0-1.47,1.47v26.52Z"/>
	<path fill="#888b8c" d="M258.52,254.09H253v-144h5.53a25.63,25.63,0,0,1,18.71,7.81h0A25.63,25.63,0,0,1,285,136.6v91a26.67,26.67,0,0,1-26.52,26.52ZM257.05,250h1.47A22.61,22.61,0,0,0,281,227.57v-91a21.43,21.43,0,0,0-6.62-15.84h0a21.43,21.43,0,0,0-15.84-6.62h-1.47Z"/>
	<path fill="#888b8c" d="M246.56,254.09h-123v-144H141V94.61a12.48,12.48,0,0,1,12.53-12.53h63a12.48,12.48,0,0,1,12.53,12.53v15.46h17.49Zm-119-4.06h114.9V114.14H225V94.61a8.42,8.42,0,0,0-8.47-8.47h-63a8.42,8.42,0,0,0-8.47,8.47v19.53H127.59Zm67.95-23.93h-21a5.4,5.4,0,0,1-5.53-5.53V198.11H146.56a5.4,5.4,0,0,1-5.53-5.53v-21a5.4,5.4,0,0,1,5.53-5.53H169V143.6a5.4,5.4,0,0,1,5.53-5.53h21a5.4,5.4,0,0,1,5.53,5.53v22.46h22.46a5.4,5.4,0,0,1,5.53,5.53v21a5.39,5.39,0,0,1-5.53,5.53H201.07v22.46a5.4,5.4,0,0,1-5.53,5.53Zm-49-56a1.35,1.35,0,0,0-1.47,1.47v21a1.35,1.35,0,0,0,1.47,1.47h26.52v26.52a1.35,1.35,0,0,0,1.47,1.47h21a1.35,1.35,0,0,0,1.47-1.47V194.05h26.52a1.35,1.35,0,0,0,1.47-1.47v-21a1.35,1.35,0,0,0-1.47-1.47H197V143.6a1.35,1.35,0,0,0-1.47-1.47h-21a1.35,1.35,0,0,0-1.47,1.47v26.52Zm68.51-56H155V96.08h60Zm-56-4.06H211v-9.94H159.08Z"/>
	<path fill="#888b8c" d="M117.1,254.09h-5.53A26.67,26.67,0,0,1,85,227.57v-91a25.63,25.63,0,0,1,7.81-18.71h0a25.64,25.64,0,0,1,18.71-7.81h5.53Zm-5.53-140a21.43,21.43,0,0,0-15.84,6.62h0A21.43,21.43,0,0,0,89.1,136.6v91A22.61,22.61,0,0,0,111.57,250H113V114.14Z"/>
</svg>