<svg height="100" width="100" data-name="Layer 1" xmlns="http://www.w3.org/2000/svg" viewBox="70 90 210 170"><path fill="#ffffff" d="M274.38,98.51v28.56a7.23,7.23,0,0,1-7.15,7.15H81.52a7.23,7.23,0,0,1-7.15-7.15V98.51a7.23,7.23,0,0,1,7.15-7.15H267.23a7.23,7.23,0,0,1,7.15,7.15Zm0,57.15v28.56a7.23,7.23,0,0,1-7.15,7.15H81.52a7.23,7.23,0,0,1-7.15-7.15V155.66a7.23,7.23,0,0,1,7.15-7.15H267.23a7.23,7.23,0,0,1,7.15,7.15Zm0,57.15v28.56a7.23,7.23,0,0,1-7.15,7.15H81.52a7.23,7.23,0,0,1-7.15-7.15V212.8a7.23,7.23,0,0,1,7.15-7.15H267.23a7.23,7.23,0,0,1,7.15,7.15ZM145.81,177.08H260.09V162.8H145.81Zm42.85,57.15h71.42V220H188.67ZM217.23,120h42.85V105.66H217.23Z"/></svg>