<svg 
height="100" 
width="100" 
data-name="Layer 1" 
xmlns="http://www.w3.org/2000/svg" 
viewBox="75 100 200 175">
<path fill="#ffffff" 
d="M232.8,200.14v21.3a32.34,32.34,0,0,1-32.29,32.29H107.23a32.34,32.34,0,0,1-32.29-32.29V128.17a32.34,32.34,0,0,1,32.29-32.29h93.27a30.84,30.84,0,0,1,13.12,2.8,3.4,3.4,0,0,1,2,2.58,3.49,3.49,0,0,1-1,3.25L209.14,110a3.28,3.28,0,0,1-3.59.9,20,20,0,0,0-5-.67H107.23A18,18,0,0,0,89.3,128.17v93.27a18,18,0,0,0,17.94,17.94h93.27a18,18,0,0,0,17.94-17.94V207.32a3.36,3.36,0,0,1,1-2.47l7.17-7.17a3.36,3.36,0,0,1,3.92-.79A3.25,3.25,0,0,1,232.8,200.14ZM222,117.41l32.29,32.29L179,225H146.7V192.74ZM174.5,214.27l13-13-17-17-13,13v6.28h10.76v10.76Zm49.33-80.72q-1.79-1.79-3.7.11L180.89,172.9q-1.91,1.91-.11,3.7t3.7-.11l39.24-39.24Q225.62,135.34,223.83,133.55Zm48-1.35-10.31,10.31-32.29-32.29,10.31-10.31a10.83,10.83,0,0,1,15.25,0l17,17a10.83,10.83,0,0,1,0,15.25Z"/></svg>