<svg height="100" width="100" data-name="Layer 1" 
xmlns="http://www.w3.org/2000/svg" 
viewBox="60 60 220 220"><path fill="#888b8c" d="M230.62,270.47a11.56,11.56,0,0,1-5.72-1.68L173,241.53l-51.93,27.29a11.88,11.88,0,0,1-5.66,1.65,6.27,6.27,0,0,1-5.35-2.54,9,9,0,0,1-1.62-5.37,19.55,19.55,0,0,1,.26-2.65l10-57.87L76.6,161.09C74.18,158.49,73,156.19,73,154c0-2.78,1.44-6.32,8.3-7.42l58.09-8.45,26-52.62c2.27-4.92,5.38-6,7.59-6,3.19,0,5.76,2,7.61,6l26,52.58,58.06,8.44c6.89,1.11,8.33,4.65,8.33,7.43,0,2.29-1.19,4.61-3.65,7.08l-42,41,9.95,57.82a20.23,20.23,0,0,1,.15,2.7,9,9,0,0,1-1.62,5.36A6.2,6.2,0,0,1,230.62,270.47ZM173,236.94l53.82,28.29a7.61,7.61,0,0,0,3.77,1.18,2.14,2.14,0,0,0,1.95-.87,5,5,0,0,0,.85-3,16.14,16.14,0,0,0-.1-2.08L223,200.61l43.51-42.43c1.59-1.61,2.45-3.07,2.45-4.2,0-.72,0-2.63-4.89-3.41L204,141.82,177,87.29c-1.72-3.7-3.4-3.7-3.95-3.7s-2.24,0-3.93,3.65l-27,54.58L82,150.57c-4.86.78-4.86,2.69-4.86,3.41s.42,2.14,2.4,4.27l43.56,42.36-10.31,59.93a15.05,15.05,0,0,0-.21,2,5,5,0,0,0,.86,3,2.25,2.25,0,0,0,2.06.86,8.18,8.18,0,0,0,3.74-1.17Z"/></svg>