<svg height="100" width="100" data-name="Layer 1" xmlns="http://www.w3.org/2000/svg" viewBox="0 0 200 200"><path fill="#365989" d="M189.75,78.75c0,1.58-.94,3.3-2.8,5.18l-39.16,38.18L157.06,176a17,17,0,0,1,.11,2.16A6.37,6.37,0,0,1,156,182a3.83,3.83,0,0,1-3.29,1.56,8.7,8.7,0,0,1-4.31-1.29L100,156.84,51.57,182.3a9.19,9.19,0,0,1-4.31,1.29,3.93,3.93,0,0,1-3.4-1.56,6.37,6.37,0,0,1-1.13-3.83,16.51,16.51,0,0,1,.22-2.16l9.28-53.93L13,83.92c-1.81-1.94-2.7-3.67-2.7-5.18q0-4,6-5l54.15-7.87L94.71,16.83q2-4.43,5.29-4.42c2.16,0,3.91,1.47,5.29,4.42l24.27,49.08,54.15,7.87C187.72,74.43,189.75,76.08,189.75,78.75Z"/></svg>