<svg height="100" width="100" data-name="Layer 1" 
xmlns="http://www.w3.org/2000/svg" 
viewBox="70 60 220 220"><path fill="#888b8c" d="M185,254.51a8.54,8.54,0,0,1-6.25-2.56l-68-65.6a13.63,13.63,0,0,1-2.6-2.49l-3-3.38H150a4.88,4.88,0,0,0,3.08-1.05,4.53,4.53,0,0,0,1.72-2.63l9.5-38.13,22.86,80.25a4.92,4.92,0,0,0,1.8,2.55,4.79,4.79,0,0,0,3,1,4.63,4.63,0,0,0,2.92-1,4.94,4.94,0,0,0,1.81-2.58l17.44-57.93,8.4,16.81a4.52,4.52,0,0,0,4.42,2.71h37.67l-2.76,3.33a13.15,13.15,0,0,1-1.29,1.36c-.32.29-.62.54-.89.76l-.38.46L191.22,252A8.51,8.51,0,0,1,185,254.51Zm-70.28-70L181.6,249a4.83,4.83,0,0,0,6.78,0l67-64.54H227a8.58,8.58,0,0,1-8-4.93v0l-3.84-7.67L200.61,220a9,9,0,0,1-3.23,4.64,8.66,8.66,0,0,1-5.39,1.84,8.83,8.83,0,0,1-5.5-1.84,9,9,0,0,1-3.22-4.64l-18.7-65.64-5.81,23.34a8.54,8.54,0,0,1-3.19,4.89,8.92,8.92,0,0,1-5.56,1.9Z"/><path fill="#888b8c" d="M192.17,199.78l-23.34-81.67a4.84,4.84,0,0,0-1.83-2.54,5.05,5.05,0,0,0-3.11-1,4.8,4.8,0,0,0-4.69,3.69l-13.07,52.3H97.2l-.6-.91C88.9,158,85,146.63,85,135.7c0-16.53,4.88-29.67,14.5-39.07s23-14.14,39.8-14.14A45.88,45.88,0,0,1,153.77,85a58.44,58.44,0,0,1,13.6,6.57c4.06,2.67,7.63,5.23,10.59,7.6,2.44,1.95,4.8,4,7,6.18,2.25-2.16,4.61-4.23,7-6.18,3-2.37,6.53-4.93,10.59-7.6A58.46,58.46,0,0,1,216.23,85,45.9,45.9,0,0,1,230.7,82.5c16.8,0,30.19,4.76,39.8,14.14h0C280.12,106,285,119.17,285,135.7c0,10.93-3.9,22.35-11.6,33.93l-.6.91H230.11l-12.7-25.28a4.62,4.62,0,0,0-2-2.1,4.52,4.52,0,0,0-2.77-.62c-2.44.27-3.79,1.36-4.37,3.54ZM163.9,110.49a9.1,9.1,0,0,1,5.53,1.82,8.9,8.9,0,0,1,3.31,4.66l19.53,68.37L204.38,145c1-3.75,3.72-6,7.84-6.46a8.94,8.94,0,0,1,8.84,5l11.55,23h38c6.85-10.59,10.33-20.93,10.33-30.77,0-15.39-4.47-27.56-13.27-36.16s-21.26-13-37-13a41.83,41.83,0,0,0-13.19,2.25,54.37,54.37,0,0,0-12.65,6.11c-4,2.6-7.42,5.09-10.29,7.38a99.29,99.29,0,0,0-8.14,7.28L185,111l-1.44-1.44a99.33,99.33,0,0,0-8.14-7.29c-2.87-2.29-6.33-4.78-10.29-7.38a54.35,54.35,0,0,0-12.65-6.11,41.81,41.81,0,0,0-13.19-2.25c-15.7,0-28.13,4.37-37,13S89.06,120.3,89.06,135.7c0,9.84,3.47,20.19,10.33,30.77H143l12.3-49.2a8.87,8.87,0,0,1,8.64-6.79Z"/></svg>