<svg height="100" width="100" data-name="Layer 1" xmlns="http://www.w3.org/2000/svg" viewBox="0 0 200 200"><path fill="#365989" d="M189.75,69.45q0,14.53-10.32,30h-37L131.35,77.36a6,6,0,0,0-2.55-2.7,6,6,0,0,0-3.66-.8q-4.51.5-5.61,4.61l-12.92,43.07L87,52.82a6.29,6.29,0,0,0-2.35-3.31,6.47,6.47,0,0,0-4-1.3A6.26,6.26,0,0,0,74.56,53L62.94,99.5H20.57Q10.25,84,10.25,69.45q0-22,12.72-34.46T58.13,22.58A40,40,0,0,1,70.8,24.73a51.4,51.4,0,0,1,12,5.81q5.56,3.66,9.57,6.86A92.14,92.14,0,0,1,100,44.21a92.14,92.14,0,0,1,7.61-6.81q4-3.2,9.57-6.86a51.4,51.4,0,0,1,12-5.81,40,40,0,0,1,12.67-2.15Q164.3,22.58,177,35T189.75,69.45Zm-51.28,42.87H169a10.18,10.18,0,0,1-1,1.05q-.5.45-.9.75l-.3.4-62.4,60.1a6.29,6.29,0,0,1-8.81,0l-62.5-60.3a9.5,9.5,0,0,1-2.1-2h37a6.31,6.31,0,0,0,4-1.35,6,6,0,0,0,2.25-3.46l7-28.15,19,66.81a6.39,6.39,0,0,0,2.3,3.31,6.24,6.24,0,0,0,3.91,1.3,6.1,6.1,0,0,0,3.81-1.3,6.39,6.39,0,0,0,2.3-3.31L127.14,97.6l5.61,11.22A6,6,0,0,0,138.46,112.32Z"/></svg>