<svg height="100" width="100" data-name="Layer 1" xmlns="http://www.w3.org/2000/svg" viewBox="0 0 200 200"><path fill="#365989" d="M65.14,17.37a89,89,0,0,1,69.71,0,88.18,88.18,0,0,1,47.78,47.78,89,89,0,0,1,.05,69.61A89.46,89.46,0,0,1,163.6,163.4,90.92,90.92,0,0,1,135,182.58a89.18,89.18,0,0,1-69.91.05,89.12,89.12,0,0,1-28.6-19.18,91.24,91.24,0,0,1-19.08-28.65,88.86,88.86,0,0,1,0-69.66A88.18,88.18,0,0,1,65.14,17.37ZM162,145.57A75.73,75.73,0,0,0,176.92,100a74.92,74.92,0,0,0-6.11-29.85,76,76,0,0,0-41-41,76,76,0,0,0-59.7,0,76,76,0,0,0-41,41A74.81,74.81,0,0,0,23.08,100,75.69,75.69,0,0,0,38,145.57q6.61-32.75,30.65-32.75A43.28,43.28,0,0,0,100,125.64a43.3,43.3,0,0,0,31.35-12.82Q155.39,112.82,162,145.57ZM127.19,108a37.06,37.06,0,0,0,11.27-27.19,37.06,37.06,0,0,0-11.27-27.19A37.06,37.06,0,0,0,100,42.31,37.06,37.06,0,0,0,72.81,53.57,37.06,37.06,0,0,0,61.54,80.77,37.06,37.06,0,0,0,72.81,108,37.06,37.06,0,0,0,100,119.23,37.06,37.06,0,0,0,127.19,108Z"/></svg>