<svg 
height="100" 
width="100" 
data-name="Layer 1" 
xmlns="http://www.w3.org/2000/svg" 
viewBox="65 60 220 220">
	<path fill="#888b8c" d="M244.61,225.72l-.91-4.53c-4.56-22.59-14.59-33.76-30.66-34.12a50.87,50.87,0,0,1-70.07,0c-16.07.36-26.1,11.53-30.66,34.12l-.91,4.53L108.68,222A85,85,0,0,1,92,171a84.07,84.07,0,0,1,6.83-33.38,85,85,0,0,1,45.78-45.79,85,85,0,0,1,66.77,0,87.24,87.24,0,0,1,27.42,18.36h0a87.28,87.28,0,0,1,18.36,27.42A85.68,85.68,0,0,1,247.32,222ZM178,89.09a80,80,0,0,0-31.78,6.5,80.94,80.94,0,0,0-43.66,43.66,81.56,81.56,0,0,0,6.8,76.57C114.87,194,126.43,183,143.78,183h.83l.59.58a46.81,46.81,0,0,0,65.61,0l.59-.58h.83c17.34,0,28.9,11,34.41,32.82a81.56,81.56,0,0,0,6.8-76.57,83.23,83.23,0,0,0-17.5-26.15h0a83.22,83.22,0,0,0-26.16-17.5A80.09,80.09,0,0,0,178,89.09Zm0,105a44,44,0,0,1-44-44,44,44,0,0,1,44-44h0a44,44,0,0,1,44,44,42.59,42.59,0,0,1-12.9,31.12h0A42.59,42.59,0,0,1,178,194.06Zm0-84a40,40,0,0,0-40,40,40,40,0,0,0,40,40,40,40,0,0,0,40-40,40,40,0,0,0-40-40Z"/>
	<path fill="#888b8c" d="M178,271a98.5,98.5,0,0,1-39-7.93,99.74,99.74,0,0,1-31.86-21.38,102.07,102.07,0,0,1-21.25-31.9,99,99,0,0,1,0-77.65A98.29,98.29,0,0,1,139.15,79a99.17,99.17,0,0,1,77.7,0,98.29,98.29,0,0,1,53.22,53.22h0a99.21,99.21,0,0,1,.06,77.58,100.12,100.12,0,0,1-21.26,31.91A101.74,101.74,0,0,1,217,263.05,98,98,0,0,1,178,271ZM178,75.1a94.22,94.22,0,0,0-37.25,7.6,94.23,94.23,0,0,0-51.09,51.09,95,95,0,0,0,0,74.45,98,98,0,0,0,20.4,30.64,95.72,95.72,0,0,0,30.57,20.5,95.33,95.33,0,0,0,74.72-.05A97.71,97.71,0,0,0,246,238.81a96.09,96.09,0,0,0,20.4-30.63,95.15,95.15,0,0,0-.05-74.4h0a94.23,94.23,0,0,0-51.09-51.09A94.26,94.26,0,0,0,178,75.1Zm66.61,150.62-.91-4.53c-4.56-22.59-14.59-33.76-30.66-34.12a50.87,50.87,0,0,1-70.07,0c-16.07.36-26.1,11.53-30.66,34.12l-.91,4.53L108.68,222A85,85,0,0,1,92,171a84.07,84.07,0,0,1,6.83-33.38,85,85,0,0,1,45.78-45.79,85,85,0,0,1,66.77,0,85,85,0,0,1,45.78,45.78A85.68,85.68,0,0,1,247.32,222ZM178,89.09a80,80,0,0,0-31.78,6.5,80.94,80.94,0,0,0-43.66,43.66,81.56,81.56,0,0,0,6.8,76.57C114.87,194,126.43,183,143.78,183h.83l.59.58a46.81,46.81,0,0,0,65.61,0l.59-.58h.83c17.34,0,28.9,11,34.41,32.82a81.56,81.56,0,0,0,6.8-76.57A80.95,80.95,0,0,0,209.78,95.6,80.09,80.09,0,0,0,178,89.09Z"/>
	<path fill="#888b8c" d="M178,194.06a44,44,0,0,1-44-44,44,44,0,0,1,44-44,44,44,0,0,1,44,44,44,44,0,0,1-44,44Zm0-84a40,40,0,0,0-40,40,40,40,0,0,0,40,40,40,40,0,0,0,40-40,40,40,0,0,0-40-40Z"/>
</svg>